<svg fill="none" height="301" viewBox="0 0 182 301" width="182" xmlns="http://www.w3.org/2000/svg" xmlns:xlink="http://www.w3.org/1999/xlink"><clipPath id="a"><path d="m0 .0649414h158c13.255 0 24 10.7451586 24 23.9999586v252.0001c0 13.255-10.745 24-24 24h-158z"/></clipPath><clipPath id="b"><path d="m0 0h115v140h-115z" transform="matrix(-1 .00000001 .00000001 1 130 28.0649)"/></clipPath><clipPath id="c"><path d="m0 0h112.917v227.022h-112.917z" transform="matrix(.97502004 .22211691 -.22211691 .97502004 63.8281 113.209)"/></clipPath><g clip-path="url(#a)"><g clip-path="url(#b)"><path d="m47.2899 97.6483c-.6516-4.0233-5.9698-.2097-5.9698-.2097-14.2038 7.7264-12.9778-26.5573.9057-17.6221 4.3407 3.6094 11.3984-1.7385 11.3984-1.7385 1.6257-1.4532 2.9255-3.2337 3.8138-5.2245.8883-1.9909 1.3451-4.147 1.3404-6.3268s-.4708-4.334-1.3676-6.321c-.8969-1.987-2.2043-3.7619-3.8363-5.2081l-29.225-25.9392c-.0995-.0899-.1628-.213-.1782-.3462-.0153-.1332.0184-.2674.0948-.3776s.1904-.1888.3206-.2211c.1302-.0324.2677-.0163.3869.0453l78.0654 41.1606c7.108 3.7488 13.51 8.7031 18.92 14.6418l8.041 8.8304-12.265 10.0064c-2.267 1.844-5.057 2.931-7.975 3.107l-2.038.127c-1.89.132-3.769-.387-5.323-1.472s-2.6884-2.669-3.2144-4.489c-.3392-1.1861-.4353-2.4287-.2825-3.653s.5513-2.4051 1.1719-3.4719l1.187-2.4504 4.766-9.7906c-1.105 1.7274-6.4006 9.8955-7.4002 11.4298-5.4562 7.4727-.0883 17.8261 9.0902 18.2121l.508.034c-8.4914 6.335-17.673 11.689-27.3695 15.961l-63.2765 27.865c-.1099.049-.2327.06-.3498.033-.1171-.028-.222-.092-.2989-.185-.0768-.092-.1214-.207-.1269-.327-.0056-.12.0283-.239.0963-.338l6.3343-9.31c.5392-.797 1.1817-1.519 1.9108-2.147l10.4927-9.063c4.2627-4.753 7.4978-10.335 9.5028-16.396 2.005-6.06 2.7368-12.469 2.1496-18.8257z" fill="#ff9950"/><path d="m78.4256 127.401c-13.5079 5.42-29.1973-5.806-30.9645-26.491-.0276-1.1036-.0718-2.1633-.1712-3.245-.6516-4.0233-5.9698-.2097-5.9698-.2097-14.2038 7.7267-12.9778-26.5574.9057-17.6221 4.3407 3.6094 11.3984-1.7385 11.3984-1.7385 2.7532-2.5243 4.5319-5.9348 5.0254-9.6361 1.1045-7.3679 16.5233-13.8251 28.5402-7.4838l15.8492 8.3613c7.108 3.7488 13.51 8.7031 18.92 14.6418l8.041 8.8304-12.271 10.0057c-2.266 1.84-5.054 2.921-7.969 3.091l-2.038.127c-1.89.132-3.769-.387-5.323-1.472s-2.6884-2.669-3.2144-4.489c-.3392-1.186-.4353-2.4285-.2825-3.6528s.5513-2.4052 1.1719-3.4719l1.187-2.4504 4.766-9.7907c-1.105 1.7274-6.4006 9.8955-7.4002 11.4298-5.4562 7.4727-.0883 17.826 9.0902 18.213l.508.033c-8.4914 6.335-17.6729 11.689-27.3695 15.961l-2.4299 1.07z" fill="#ffcba6"/><path d="m115.873 95.3797c-2.052 0-3.716-1.6629-3.716-3.7143 0-2.0513 1.664-3.7142 3.716-3.7142 2.053 0 3.717 1.6629 3.717 3.7142 0 2.0514-1.664 3.7143-3.717 3.7143z" fill="#783200"/><g fill="#ff9950"><path d="m43.1754 159.483c5.3871-2.572 10.6037-5.486 15.6175-8.726 1.6844-1.153 3.5289-2.367 4.777-3.907 5.0751-6.352 12.3482-10.734 19.6048-14.035.381-.165 1.6567-.734 1.9881-.899 6.2238-3.025 9.8355-14.283 11.2437-16.298.3093-.447.4749.397.5523.767.4148 2.971.3401 5.989-.2209 8.935-.7235 3.864-2.4244 7.898-5.6937 10.343-.2375.193-1.9053 1.468-2.1648 1.656-3.3466 2.566-6.9252 5.11-9.3496 8.532l-.5522.856c-.6131 1.07-1.355 2.062-2.209 2.952-3.2638 3.312-7.0577 5.905-10.9179 8.389-2.5799 1.618-5.2518 3.085-8.0021 4.393-2.7612 1.247-5.6053 2.489-8.6703 2.688-.9733.083-1.9505.11-2.9269.083 0-.127 2.8827-.552 2.8827-.552 2.8772-.552 5.4949-2.064 7.9966-3.538 2.517-1.538 4.9452-3.216 7.2731-5.028 3.4349-2.66 6.8478-5.519 9.6588-8.764.9885-1.104 1.4745-2.367 2.209-3.571.6038-.96 1.2444-1.88 1.9218-2.759-2.7888 1.484-5.4685 3.164-8.0186 5.028-1.5338 1.201-2.9518 2.542-4.2358 4.006-1.6172 1.435-3.3856 2.69-5.2739 3.742-5.3089 3.042-10.8311 5.697-16.5233 7.942-7.5603 2.864-15.2752 5.872-23.4319 6.336-.7189.05-1.4403.05-2.1592 0 0-.133 2.1316-.486 2.1316-.48 7.8972-1.225 15.3083-4.708 22.4931-8.091z"/><path d="m17.2419 66.3227c4.9702 1.6557 18.1137 6.551 24.9837 13.4939-13.8835-8.9352-15.1095 25.3874-.9057 17.6221-7.1792 6.7833-19.8146 13.0133-24.7462 15.3043-.1879.087-.3965.12-.602.094-.2056-.025-.3998-.108-.5605-.239-.1606-.131-.2813-.304-.3482-.5s-.0773-.406-.0301-.608l2.082-8.797c1.85-7.8151 2.0212-23.0144-.0884-30.6692l-1.1983-4.36c-.0533-.1928-.0532-.3966.0004-.5893.0536-.1928.1586-.3674.3038-.5052.1452-.1377.3251-.2334.5206-.2769.1954-.0434.399-.0329.5889.0303z"/></g></g><g clip-path="url(#c)"><path d="m140.396 169.767c3.669.836 7.505.562 11.022-.785 3.516-1.348 6.556-3.71 8.734-6.788 2.178-3.077 3.398-6.732 3.503-10.501.106-3.77-.907-7.485-2.909-10.677-2.003-3.191-4.905-5.715-8.341-7.252-3.436-1.538-7.25-2.019-10.961-1.384-3.711.634-7.152 2.357-9.887 4.95s-4.642 5.94-5.48 9.617c-1.123 4.931-.246 10.106 2.439 14.385 2.686 4.28 6.959 7.314 11.88 8.435z" fill="#7bdeff"/><path d="m51.6578 229c2.6779.61 5.4769.411 8.0431-.573 2.5662-.983 4.7843-2.707 6.3738-4.953 1.5896-2.245 2.4791-4.912 2.5563-7.663.0771-2.751-.6617-5.462-2.123-7.791s-3.5794-4.171-6.0866-5.292c-2.5072-1.122-5.2907-1.474-7.9987-1.01-2.7079.463-5.2187 1.72-7.2147 3.612-1.996 1.893-3.3877 4.335-3.999 7.018-.407 1.782-.4595 3.626-.1546 5.428.305 1.801.9614 3.525 1.9319 5.071.9704 1.547 2.2357 2.886 3.7237 3.942 1.4879 1.056 3.1692 1.807 4.9478 2.211z" fill="#d8c1ff"/><path d="m61.6529 247.834c2.6779.61 5.4769.41 8.0431-.573 2.5662-.984 4.7843-2.708 6.3738-4.953 1.5896-2.246 2.4792-4.913 2.5563-7.664.0771-2.75-.6617-5.462-2.123-7.791-1.4613-2.328-3.5794-4.17-6.0866-5.292-2.5071-1.122-5.2907-1.473-7.9987-1.01-2.7079.463-5.2187 1.721-7.2147 3.613s-3.3877 4.334-3.9989 7.018c-.4071 1.781-.4596 3.626-.1547 5.427.305 1.802.9615 3.525 1.9319 5.072.9704 1.546 2.2358 2.886 3.7237 3.941 1.4879 1.056 3.1692 1.808 4.9478 2.212z" fill="#d8c1ff"/><path d="m64.4576 266.93c2.6779.61 5.4769.41 8.0431-.573 2.5662-.984 4.7843-2.707 6.3738-4.953 1.5896-2.246 2.4791-4.913 2.5563-7.663.0771-2.751-.6617-5.462-2.123-7.791s-3.5794-4.171-6.0866-5.293-5.2907-1.473-7.9987-1.01c-2.7079.464-5.2187 1.721-7.2147 3.613s-3.3877 4.335-3.999 7.018c-.407 1.782-.4595 3.626-.1546 5.428.305 1.801.9614 3.524 1.9319 5.071.9704 1.546 2.2357 2.886 3.7237 3.942 1.4879 1.055 3.1692 1.807 4.9478 2.211z" fill="#d8c1ff"/><path d="m64.5553 286.518c2.6778.61 5.4768.411 8.043-.573 2.5662-.983 4.7843-2.707 6.3739-4.953 1.5895-2.245 2.4791-4.912 2.5562-7.663s-.6616-5.462-2.1229-7.791-3.5795-4.17-6.0866-5.292c-2.5072-1.122-5.2907-1.474-7.9987-1.01-2.708.463-5.2187 1.72-7.2147 3.612-1.9961 1.893-3.3877 4.335-3.999 7.018-.407 1.782-.4596 3.626-.1546 5.428.3049 1.801.9614 3.525 1.9318 5.071.9704 1.547 2.2358 2.886 3.7237 3.942 1.488 1.056 3.1693 1.807 4.9479 2.211z" fill="#d8c1ff"/><path d="m59.6236 308.166c2.6779.61 5.4769.411 8.0431-.573 2.5662-.983 4.7843-2.707 6.3738-4.953 1.5896-2.245 2.4792-4.912 2.5563-7.663s-.6617-5.462-2.123-7.791-3.5794-4.171-6.0866-5.292c-2.5071-1.122-5.2907-1.474-7.9987-1.01-2.7079.463-5.2187 1.72-7.2147 3.612-1.996 1.893-3.3876 4.335-3.9989 7.018-.4071 1.782-.4596 3.626-.1547 5.428.305 1.801.9615 3.525 1.9319 5.071.9704 1.547 2.2358 2.886 3.7237 3.942s3.1692 1.807 4.9478 2.211z" fill="#d8c1ff"/><path d="m63.2906 328.559c2.6779.61 5.4769.41 8.0431-.573 2.5662-.984 4.7843-2.707 6.3738-4.953 1.5896-2.246 2.4792-4.913 2.5563-7.663.0771-2.751-.6617-5.463-2.123-7.791-1.4613-2.329-3.5794-4.171-6.0866-5.293-2.5071-1.122-5.2907-1.473-7.9987-1.01-2.7079.463-5.2187 1.721-7.2147 3.613s-3.3877 4.334-3.999 7.018c-.407 1.782-.4595 3.626-.1546 5.427.305 1.802.9614 3.525 1.9319 5.072.9704 1.546 2.2357 2.886 3.7237 3.941 1.4879 1.056 3.1692 1.808 4.9478 2.212z" fill="#d8c1ff"/><g fill="#7bdeff"><path d="m141.67 194.201c3.67.836 7.505.563 11.022-.785s6.556-3.71 8.735-6.787c2.178-3.078 3.397-6.732 3.503-10.502.105-3.769-.907-7.485-2.91-10.676-2.002-3.192-4.905-5.715-8.341-7.253-3.435-1.537-7.25-2.019-10.961-1.384s-7.151 2.358-9.887 4.951c-2.735 2.593-4.642 5.94-5.48 9.617-1.123 4.931-.245 10.105 2.44 14.385 2.685 4.279 6.958 7.313 11.879 8.434z"/><path d="m135.381 221.806c3.67.836 7.505.563 11.022-.785s6.556-3.71 8.735-6.787c2.178-3.078 3.397-6.732 3.503-10.502.105-3.77-.907-7.485-2.91-10.676-2.002-3.192-4.905-5.715-8.341-7.253-3.435-1.537-7.25-2.019-10.961-1.384s-7.151 2.358-9.887 4.951c-2.735 2.593-4.642 5.94-5.48 9.617-1.123 4.931-.245 10.105 2.44 14.385 2.685 4.279 6.958 7.313 11.879 8.434z"/><path d="m125.794 248.165c3.67.836 7.505.563 11.022-.785s6.556-3.71 8.735-6.787c2.178-3.078 3.397-6.732 3.503-10.502.105-3.77-.907-7.485-2.91-10.676-2.002-3.192-4.905-5.716-8.34-7.253-3.436-1.537-7.251-2.019-10.962-1.384s-7.151 2.358-9.886 4.951c-2.736 2.593-4.643 5.94-5.481 9.617-1.123 4.931-.245 10.105 2.44 14.385 2.685 4.279 6.958 7.313 11.879 8.434z"/><path d="m104.149 328.88c3.669.836 7.505.563 11.022-.785 3.516-1.348 6.556-3.71 8.734-6.787s3.397-6.732 3.503-10.502c.106-3.769-.907-7.485-2.909-10.676-2.003-3.191-4.905-5.715-8.341-7.253-3.436-1.537-7.25-2.019-10.961-1.384s-7.1517 2.358-9.887 4.951-4.6424 5.94-5.4801 9.617c-1.1233 4.931-.2458 10.106 2.4395 14.385 2.6852 4.279 6.9583 7.313 11.8796 8.434z"/><path d="m110.147 271.029c3.669.836 7.505.563 11.022-.785 3.516-1.348 6.556-3.71 8.734-6.787s3.397-6.732 3.503-10.502c.106-3.769-.907-7.485-2.909-10.676-2.003-3.191-4.905-5.715-8.341-7.253-3.436-1.537-7.25-2.019-10.961-1.384s-7.152 2.358-9.887 4.951c-2.7352 2.593-4.6423 5.94-5.48 9.617-1.1234 4.931-.2459 10.106 2.4394 14.385 2.6856 4.279 6.9586 7.313 11.8796 8.434z"/><path d="m103.399 300.652c3.669.836 7.505.563 11.022-.785 3.516-1.348 6.556-3.71 8.734-6.787s3.397-6.732 3.503-10.502c.106-3.769-.907-7.485-2.909-10.676-2.003-3.191-4.905-5.715-8.341-7.253-3.436-1.537-7.25-2.019-10.961-1.384s-7.1517 2.358-9.887 4.951-4.6424 5.94-5.4801 9.617c-1.1233 4.931-.2458 10.106 2.4395 14.385 2.6852 4.279 6.9583 7.313 11.8796 8.434z"/></g><path d="m118.436 358.488c-.228-.053-.442-.153-.628-.293-.186-.141-.341-.32-.454-.525-2.823-5.085-9.202-23.094-10.975-46.27-1.513-19.501.082-47.792 15.903-71.938 28.47-43.448 20.791-87.534 20.722-87.976-.051-.219-.057-.446-.018-.668.04-.221.123-.432.246-.62s.283-.35.47-.474c.187-.125.397-.21.618-.251.22-.041.447-.037.666.013.219.049.425.142.607.274s.335.299.45.492c.116.193.191.407.221.629.084.454 8.022 45.793-21.208 90.407-15.309 23.359-16.806 50.879-15.37 69.86 1.722 22.618 7.896 40.035 10.572 44.907.156.281.228.601.207.923-.022.321-.136.629-.329.887-.193.257-.456.453-.758.564-.302.11-.629.131-.942.059z" fill="#00455b"/><path d="m71.8444 341.428c-.1918-.045-.3705-.134-.5219-.26s-.2713-.286-.3503-.467c-4.7594-11.264-9.4282-31.85-4.9591-66.034 4.6727-35.45-12.0326-58.25-12.2023-58.476-.0981-.131-.1694-.28-.21-.439s-.0496-.324-.0265-.486.0779-.318.1612-.459.1935-.264.3243-.363c.1308-.098.2796-.17.438-.21.1584-.041.3232-.05.485-.027.1619.023.3176.077.4583.161.1406.083.2635.193.3616.324.176.236 17.4843 23.788 12.6805 60.299-4.4264 33.622.1605 53.747 4.8198 64.74.09.212.1197.445.0859.672-.0339.228-.1299.442-.2776.618-.1476.177-.3411.309-.559.382s-.4517.084-.6755.033z" fill="#00455b"/></g></g></svg>